<svg width="33" height="33" viewBox="0 0 33 33" fill="none" xmlns="http://www.w3.org/2000/svg">
<path d="M18.645 4.09185C17.2681 3.541 15.732 3.541 14.355 4.09185L4.856 7.8951C4.39715 8.0786 4.00374 8.39527 3.72643 8.80432C3.44913 9.21336 3.30063 9.69606 3.30005 10.1902V22.8061C3.29997 23.3009 3.44816 23.7843 3.72551 24.194C4.00286 24.6037 4.39663 24.9209 4.856 25.1046L14.355 28.9045C15.0764 29.1934 15.8486 29.3337 16.6254 29.317C16.2238 28.7747 15.884 28.1891 15.6123 27.5713C15.3928 27.5231 15.1776 27.4568 14.9688 27.3733L5.46815 23.5734C5.31495 23.512 5.18369 23.4061 5.09133 23.2693C4.99897 23.1325 4.94976 22.9712 4.95005 22.8061V10.2925L15.675 14.5825V20.1381C16.0886 19.2398 16.6459 18.4149 17.325 17.6961V14.5809L28.05 10.2909V15.8365C28.6407 16.1385 29.1935 16.5031 29.7 16.9222V10.1902C29.7001 9.6955 29.5519 9.21208 29.2746 8.80238C28.9972 8.39269 28.6035 8.07551 28.1441 7.8918L18.645 4.09185ZM14.9688 5.62635C15.9523 5.23295 17.0494 5.23295 18.0329 5.62635L26.6541 9.07485L22.8938 10.5763L12.7397 6.51735L14.9672 5.62635H14.9688ZM10.5188 7.4034L20.6729 11.464L16.5 13.1355L6.34595 9.0732L10.5188 7.40505V7.4034ZM31.35 23.9232C31.35 21.954 30.5678 20.0654 29.1753 18.6729C27.7829 17.2805 25.8943 16.4982 23.925 16.4982C21.9558 16.4982 20.0672 17.2805 18.6748 18.6729C17.2823 20.0654 16.5 21.954 16.5 23.9232C16.5 25.8924 17.2823 27.781 18.6748 29.1735C20.0672 30.5659 21.9558 31.3482 23.925 31.3482C25.8943 31.3482 27.7829 30.5659 29.1753 29.1735C30.5678 27.781 31.35 25.8924 31.35 23.9232ZM20.0376 23.3457L20.0426 23.3407L23.3426 20.0407C23.4187 19.9619 23.5097 19.8991 23.6104 19.8559C23.711 19.8126 23.8193 19.7899 23.9288 19.7889C24.0384 19.788 24.147 19.8088 24.2484 19.8503C24.3498 19.8918 24.4419 19.9531 24.5194 20.0305C24.5968 20.108 24.6581 20.2001 24.6996 20.3015C24.7411 20.4029 24.7619 20.5115 24.761 20.6211C24.76 20.7306 24.7373 20.8389 24.694 20.9395C24.6508 21.0402 24.5879 21.1312 24.5091 21.2073L22.6166 23.0998H27.225C27.4439 23.0998 27.6537 23.1868 27.8084 23.3415C27.9631 23.4962 28.05 23.706 28.05 23.9248C28.05 24.1436 27.9631 24.3535 27.8084 24.5082C27.6537 24.6629 27.4439 24.7498 27.225 24.7498H22.6166L24.5091 26.6424C24.5879 26.7185 24.6508 26.8095 24.694 26.9102C24.7373 27.0108 24.76 27.1191 24.761 27.2286C24.7619 27.3382 24.7411 27.4468 24.6996 27.5482C24.6581 27.6496 24.5968 27.7417 24.5194 27.8192C24.4419 27.8966 24.3498 27.9579 24.2484 27.9994C24.147 28.0409 24.0384 28.0617 23.9288 28.0608C23.8193 28.0598 23.711 28.0371 23.6104 27.9938C23.5097 27.9506 23.4187 27.8877 23.3426 27.8089L20.0426 24.5089C19.8888 24.3559 19.8017 24.1484 19.8 23.9314V23.9199C19.801 23.7048 19.8863 23.4986 20.0376 23.3457V23.3457Z" fill="black"/>
</svg>
