<svg width="31" height="18" viewBox="0 0 31 18" fill="none" xmlns="http://www.w3.org/2000/svg">
<rect y="0.855957" width="31" height="17" rx="8.5" fill="#FAFAFA"/>
<path d="M10.3085 15.2907V14.4995C10.3085 14.1968 10.1129 13.9987 9.77714 13.9987C9.60925 13.9987 9.42669 14.0509 9.30118 14.223C9.20338 14.0785 9.0632 13.9987 8.85293 13.9987C8.71275 13.9987 8.57257 14.0386 8.46173 14.183V14.0248H8.16833V15.2907H8.46173V14.5917C8.46173 14.3674 8.58724 14.2614 8.78284 14.2614C8.97844 14.2614 9.07624 14.3797 9.07624 14.5917V15.2907H9.36964V14.5917C9.36964 14.3674 9.50982 14.2614 9.69075 14.2614C9.88635 14.2614 9.98415 14.3797 9.98415 14.5917V15.2907H10.3085ZM14.6606 14.0248H14.1847V13.6422H13.8913V14.0248H13.6256V14.2752H13.8913V14.8559C13.8913 15.1463 14.0168 15.3168 14.3525 15.3168C14.4781 15.3168 14.6182 15.2769 14.716 15.2247L14.6313 14.9865C14.5465 15.0388 14.4487 15.0526 14.3786 15.0526C14.2384 15.0526 14.183 14.9727 14.183 14.8421V14.2752H14.659V14.0248H14.6606ZM17.1513 13.9971C16.9834 13.9971 16.8709 14.077 16.8008 14.1815V14.0232H16.5074V15.2892H16.8008V14.5763C16.8008 14.3658 16.8986 14.246 17.0812 14.246C17.1366 14.246 17.2067 14.2598 17.2637 14.2721L17.3485 14.0079C17.2898 13.9971 17.2067 13.9971 17.1513 13.9971ZM13.3876 14.1292C13.2474 14.0371 13.0518 13.9971 12.8415 13.9971C12.5058 13.9971 12.2824 14.1554 12.2824 14.4058C12.2824 14.6163 12.4503 14.7361 12.7437 14.7745L12.8839 14.7883C13.0371 14.8145 13.1219 14.8544 13.1219 14.9205C13.1219 15.0126 13.0094 15.0787 12.8138 15.0787C12.6182 15.0787 12.4634 15.0126 12.3656 14.9466L12.2254 15.1571C12.3786 15.2631 12.5889 15.3153 12.7992 15.3153C13.1904 15.3153 13.4153 15.1432 13.4153 14.9066C13.4153 14.6823 13.2327 14.564 12.954 14.5241L12.8138 14.5103C12.6883 14.4964 12.5905 14.4703 12.5905 14.392C12.5905 14.2998 12.6883 14.2475 12.8432 14.2475C13.0111 14.2475 13.1789 14.3136 13.2637 14.3535L13.3876 14.1292ZM21.1936 13.9971C21.0258 13.9971 20.9133 14.077 20.8432 14.1815V14.0232H20.5498V15.2892H20.8432V14.5763C20.8432 14.3658 20.941 14.246 21.1236 14.246C21.179 14.246 21.2491 14.2598 21.3061 14.2721L21.3909 14.0109C21.3338 13.9971 21.2507 13.9971 21.1936 13.9971ZM17.4447 14.6577C17.4447 15.0403 17.725 15.3168 18.1586 15.3168C18.3542 15.3168 18.4944 15.2769 18.6345 15.1724L18.4944 14.9481C18.3819 15.028 18.2711 15.0664 18.1439 15.0664C17.9059 15.0664 17.7381 14.9082 17.7381 14.6577C17.7381 14.4196 17.9059 14.2614 18.1439 14.2491C18.2694 14.2491 18.3819 14.289 18.4944 14.3674L18.6345 14.1431C18.4944 14.0371 18.3542 13.9987 18.1586 13.9987C17.725 13.9971 17.4447 14.2752 17.4447 14.6577ZM20.1586 14.6577V14.0248H19.8652V14.183C19.7674 14.0647 19.6272 13.9987 19.4447 13.9987C19.0665 13.9987 18.7731 14.2752 18.7731 14.6577C18.7731 15.0403 19.0665 15.3168 19.4447 15.3168C19.6403 15.3168 19.7804 15.2508 19.8652 15.1325V15.2907H20.1586V14.6577ZM19.0812 14.6577C19.0812 14.4334 19.2344 14.2491 19.487 14.2491C19.725 14.2491 19.8929 14.4211 19.8929 14.6577C19.8929 14.882 19.725 15.0664 19.487 15.0664C19.236 15.0526 19.0812 14.8805 19.0812 14.6577ZM15.5702 13.9971C15.179 13.9971 14.8986 14.2614 14.8986 14.6562C14.8986 15.0526 15.179 15.3153 15.5848 15.3153C15.7804 15.3153 15.976 15.2631 16.1309 15.1432L15.9907 14.945C15.8782 15.0249 15.738 15.0772 15.5995 15.0772C15.4169 15.0772 15.236 14.9973 15.1936 14.7745H16.1863C16.1863 14.7346 16.1863 14.7084 16.1863 14.6685C16.1993 14.2614 15.9467 13.9971 15.5702 13.9971ZM15.5702 14.2353C15.7527 14.2353 15.8782 14.3413 15.9059 14.5379H15.2067C15.2344 14.3674 15.3599 14.2353 15.5702 14.2353ZM22.8595 14.6577V13.5239H22.5661V14.183C22.4683 14.0647 22.3281 13.9987 22.1456 13.9987C21.7674 13.9987 21.474 14.2752 21.474 14.6577C21.474 15.0403 21.7674 15.3168 22.1456 15.3168C22.3412 15.3168 22.4813 15.2508 22.5661 15.1325V15.2907H22.8595V14.6577ZM21.7821 14.6577C21.7821 14.4334 21.9353 14.2491 22.1879 14.2491C22.4259 14.2491 22.5938 14.4211 22.5938 14.6577C22.5938 14.882 22.4259 15.0664 22.1879 15.0664C21.9353 15.0526 21.7821 14.8805 21.7821 14.6577ZM11.9597 14.6577V14.0248H11.6663V14.183C11.5685 14.0647 11.4283 13.9987 11.2458 13.9987C10.8676 13.9987 10.5742 14.2752 10.5742 14.6577C10.5742 15.0403 10.8676 15.3168 11.2458 15.3168C11.4414 15.3168 11.5815 15.2508 11.6663 15.1325V15.2907H11.9597V14.6577ZM10.8692 14.6577C10.8692 14.4334 11.0225 14.2491 11.2751 14.2491C11.5131 14.2491 11.681 14.4211 11.681 14.6577C11.681 14.882 11.5131 15.0664 11.2751 15.0664C11.0225 15.0526 10.8692 14.8805 10.8692 14.6577Z" fill="#0C0C0D"/>
<path d="M17.6973 4.41064H13.2898V11.8742H17.6973V4.41064Z" fill="#FF5A00"/>
<path d="M13.5832 8.14231C13.5832 6.62594 14.3395 5.28011 15.5 4.41054C14.6459 3.77757 13.5685 3.39502 12.3933 3.39502C9.60922 3.39502 7.35657 5.51824 7.35657 8.14231C7.35657 10.7664 9.60922 12.8896 12.3933 12.8896C13.5685 12.8896 14.6459 12.507 15.5 11.8741C14.3378 11.0168 13.5832 9.65867 13.5832 8.14231Z" fill="#EB001B"/>
<path d="M23.6435 8.14231C23.6435 10.7664 21.3908 12.8896 18.6068 12.8896C17.4315 12.8896 16.3541 12.507 15.5 11.8741C16.6752 11.003 17.4169 9.65867 17.4169 8.14231C17.4169 6.62594 16.6606 5.28011 15.5 4.41054C16.3525 3.77757 17.4299 3.39502 18.6051 3.39502C21.3908 3.39502 23.6435 5.53207 23.6435 8.14231Z" fill="#F79E1B"/>
</svg>
