<svg width="33" height="18" viewBox="0 0 33 18" fill="none" xmlns="http://www.w3.org/2000/svg">
<rect y="0.855957" width="33" height="17" rx="8.5" fill="#FAFAFA"/>
<g clip-path="url(#clip0_83_2538)">
<path d="M15.8475 9.25357V11.8746H14.9562V5.4018H17.3202C17.6024 5.3963 17.883 5.44299 18.1457 5.53917C18.4085 5.63534 18.6482 5.77911 18.851 5.96216C19.056 6.1341 19.219 6.34497 19.3293 6.58059C19.4396 6.81621 19.4946 7.07113 19.4905 7.3282C19.4964 7.58665 19.4423 7.84323 19.3319 8.08036C19.2215 8.31748 19.0575 8.52953 18.851 8.70199C18.4377 9.06971 17.9274 9.2534 17.3202 9.25305H15.8475V9.25357ZM15.8475 6.1987V8.45822H17.3424C17.5062 8.46275 17.6693 8.43533 17.8212 8.3777C17.9731 8.32007 18.1104 8.23351 18.2243 8.12355C18.3377 8.02074 18.4278 7.89778 18.4893 7.76192C18.5508 7.62606 18.5825 7.48008 18.5825 7.33259C18.5825 7.18511 18.5508 7.03912 18.4893 6.90326C18.4278 6.76741 18.3377 6.64444 18.2243 6.54163C18.1118 6.42936 17.975 6.34067 17.8229 6.28146C17.6709 6.22225 17.5071 6.19387 17.3424 6.19819H15.8475V6.1987Z" fill="#5F6368"/>
<path d="M21.5445 7.30127C22.2033 7.30127 22.7233 7.4655 23.1046 7.79397C23.4859 8.12244 23.6763 8.5728 23.676 9.14504V11.8745H22.8234V11.2599H22.7846C22.4155 11.7661 21.9246 12.0191 21.3119 12.0191C20.7889 12.0191 20.3514 11.8745 19.9992 11.5853C19.8303 11.4526 19.6952 11.2863 19.6038 11.0987C19.5124 10.9111 19.4671 10.7068 19.4711 10.5007C19.4711 10.0425 19.6567 9.67802 20.028 9.4074C20.3993 9.13677 20.895 9.00112 21.5151 9.00043C22.0444 9.00043 22.4803 9.09081 22.8228 9.27157V9.08151C22.8238 8.94104 22.7913 8.80212 22.7276 8.67483C22.6639 8.54754 22.5707 8.43506 22.4546 8.34555C22.2189 8.14717 21.9117 8.03892 21.5943 8.04239C21.0964 8.04239 20.7024 8.2383 20.4123 8.63012L19.6272 8.16892C20.059 7.59049 20.6981 7.30127 21.5445 7.30127ZM20.3912 10.5188C20.3906 10.6246 20.4171 10.7291 20.4686 10.8234C20.52 10.9177 20.5948 10.9992 20.6869 11.0611C20.884 11.2058 21.1287 11.2824 21.3795 11.278C21.7556 11.2774 22.1162 11.1378 22.3821 10.8896C22.6774 10.6304 22.825 10.3262 22.825 9.97705C22.5471 9.77047 22.1596 9.66718 21.6624 9.66718C21.3003 9.66718 20.9984 9.74861 20.7566 9.91146C20.5125 10.0767 20.3912 10.2776 20.3912 10.5188Z" fill="#5F6368"/>
<path d="M28.5702 7.4458L25.5938 13.8267H24.6737L25.7782 11.594L23.821 7.4458H24.7899L26.2045 10.6272H26.2238L27.5996 7.4458H28.5702Z" fill="#5F6368"/>
<path d="M12.2455 8.68872C12.2458 8.43532 12.2228 8.18236 12.1768 7.93262H8.4176V9.36476H10.5707C10.5267 9.5935 10.4334 9.81154 10.2966 10.0058C10.1597 10.2 9.98218 10.3663 9.77458 10.4948V11.4244H11.0596C11.812 10.7773 12.2455 9.82028 12.2455 8.68872Z" fill="#4285F4"/>
<path d="M8.41765 12.3223C9.49338 12.3223 10.3991 11.9928 11.0596 11.4247L9.77463 10.495C9.41698 10.7212 8.95635 10.8504 8.41765 10.8504C7.37791 10.8504 6.49541 10.1965 6.17984 9.31543H4.85608V10.2735C5.18786 10.8893 5.6966 11.4071 6.32552 11.7688C6.95444 12.1306 7.67877 12.3222 8.41765 12.3223Z" fill="#34A853"/>
<path d="M6.17986 9.31548C6.01302 8.85379 6.01302 8.35381 6.17986 7.89212V6.93408H4.8561C4.577 7.45217 4.43164 8.02397 4.43164 8.6038C4.43164 9.18363 4.577 9.75543 4.8561 10.2735L6.17986 9.31548Z" fill="#FBBC04"/>
<path d="M8.41765 6.35692C8.98612 6.34826 9.53542 6.54862 9.94681 6.9147L11.0845 5.85337C10.3631 5.22126 9.40735 4.87423 8.41765 4.88501C7.67877 4.88504 6.95444 5.07664 6.32552 5.43843C5.6966 5.80021 5.18786 6.31794 4.85608 6.93381L6.17984 7.89185C6.49541 7.01076 7.37791 6.35692 8.41765 6.35692Z" fill="#EA4335"/>
</g>
<defs>
<clipPath id="clip0_83_2538">
<rect width="24.1371" height="8.94149" fill="white" transform="translate(4.4314 4.88525)"/>
</clipPath>
</defs>
</svg>
