<svg width="32" height="18" viewBox="0 0 32 18" fill="none" xmlns="http://www.w3.org/2000/svg">
<rect y="0.855957" width="32" height="17" rx="8.5" fill="#FAFAFA"/>
<path d="M13.8295 14.549L14.035 13.3159L13.5771 13.3058H11.3906L12.9101 4.20642C12.9148 4.17895 12.9302 4.15333 12.9526 4.13515C12.975 4.11696 13.0037 4.10693 13.0335 4.10693H16.7203C17.9442 4.10693 18.7889 4.34748 19.2299 4.82225C19.4366 5.04498 19.5683 5.27772 19.632 5.53386C19.6988 5.80261 19.7 6.1237 19.6347 6.51533L19.63 6.54391V6.79485L19.8367 6.90547C20.0109 6.9927 20.1492 7.09256 20.2553 7.20689C20.4322 7.39732 20.5466 7.63934 20.5949 7.92629C20.6448 8.2214 20.6283 8.57256 20.5466 8.97012C20.4522 9.42745 20.2997 9.82576 20.0938 10.1517C19.9043 10.452 19.663 10.7011 19.3765 10.8941C19.1029 11.0775 18.7779 11.2167 18.4104 11.3058C18.0543 11.3934 17.6483 11.4375 17.203 11.4375H16.916C16.7109 11.4375 16.5116 11.5073 16.3552 11.6324C16.1983 11.7601 16.0946 11.9346 16.0627 12.1254L16.0411 12.2364L15.6779 14.4098L15.6614 14.4896C15.6571 14.5149 15.6496 14.5275 15.6386 14.536C15.6288 14.5438 15.6147 14.549 15.6009 14.549H13.8295Z" fill="#253B80"/>
<path d="M20.0325 6.57324C20.0215 6.63969 20.0089 6.70762 19.9947 6.77741C19.5085 9.13495 17.8452 9.94937 15.7208 9.94937H14.6391C14.3793 9.94937 14.1604 10.1276 14.1199 10.3696L13.5661 13.6867L13.4093 14.627C13.383 14.7858 13.5127 14.9291 13.6825 14.9291H15.6009C15.8281 14.9291 16.0211 14.7732 16.0568 14.5616L16.0757 14.4696L16.4369 12.3047L16.4601 12.1859C16.4955 11.9736 16.6888 11.8177 16.916 11.8177H17.2029C19.0616 11.8177 20.5167 11.1049 20.942 9.04252C21.1196 8.18094 21.0276 7.46154 20.5576 6.95559C20.4153 6.80302 20.2388 6.67644 20.0325 6.57324Z" fill="#179BD7"/>
<path d="M19.5239 6.38161C19.4497 6.3612 19.373 6.34264 19.2944 6.32593C19.2154 6.3096 19.1344 6.29512 19.0511 6.2825C18.7595 6.23796 18.4399 6.2168 18.0976 6.2168H15.2079C15.1368 6.2168 15.0692 6.23202 15.0087 6.25949C14.8754 6.31999 14.7764 6.43915 14.7524 6.58503L14.1377 10.2622L14.12 10.3695C14.1605 10.1275 14.3794 9.94929 14.6392 9.94929H15.7209C17.8453 9.94929 19.5086 9.13449 19.9948 6.77732C20.0094 6.70753 20.0215 6.6396 20.0325 6.57316C19.9095 6.51154 19.7763 6.45882 19.6328 6.41391C19.5974 6.40277 19.5609 6.39201 19.5239 6.38161Z" fill="#222D65"/>
<path d="M14.7523 6.58498C14.7763 6.43909 14.8754 6.31994 15.0086 6.2598C15.0695 6.23233 15.1367 6.21711 15.2079 6.21711H18.0975C18.4399 6.21711 18.7594 6.23827 19.0511 6.28282C19.1344 6.29544 19.2154 6.30991 19.2944 6.32625C19.373 6.34295 19.4496 6.36151 19.5239 6.38193C19.5608 6.39232 19.5974 6.40309 19.6332 6.41385C19.7766 6.45877 19.9099 6.51185 20.0329 6.5731C20.1775 5.70188 20.0317 5.10869 19.5329 4.57155C18.9831 3.98021 17.9906 3.72705 16.7207 3.72705H13.034C12.7746 3.72705 12.5533 3.90523 12.5132 4.14763L10.9776 13.3406C10.9473 13.5225 11.0959 13.6866 11.29 13.6866H13.5661L14.1376 10.2622L14.7523 6.58498Z" fill="#253B80"/>
</svg>
