<svg width="33" height="18" viewBox="0 0 33 18" fill="none" xmlns="http://www.w3.org/2000/svg">
<rect y="0.855957" width="33" height="17" rx="8.5" fill="#FAFAFA"/>
<g clip-path="url(#clip0_83_2537)">
<path d="M9.36031 6.22253C9.09652 6.50777 8.67446 6.73275 8.2524 6.70061C8.19965 6.31493 8.40628 5.90515 8.64808 5.65204C8.91187 5.35877 9.3735 5.14986 9.7472 5.13379C9.79116 5.53554 9.6197 5.92925 9.36031 6.22253ZM9.7428 6.77694C9.1317 6.7448 8.60852 7.09432 8.31835 7.09432C8.02379 7.09432 7.57974 6.79301 7.09613 6.80104C6.46744 6.80908 5.88271 7.13449 5.56177 7.65275C4.9023 8.68926 5.39031 10.2239 6.02779 11.0676C6.33994 11.4854 6.71364 11.9434 7.20605 11.9273C7.67207 11.9113 7.85672 11.6501 8.41947 11.6501C8.98661 11.6501 9.14928 11.9273 9.64168 11.9193C10.1517 11.9113 10.4726 11.5015 10.7848 11.0837C11.1409 10.6096 11.286 10.1476 11.2948 10.1235C11.286 10.1155 10.3099 9.77398 10.3012 8.7455C10.2924 7.88576 11.0705 7.47598 11.1057 7.45187C10.6661 6.85729 9.98021 6.79301 9.7428 6.77694ZM13.2732 5.61187V11.8751H14.3371V9.7338H15.8099C17.1552 9.7338 18.1005 8.89013 18.1005 7.66882C18.1005 6.4475 17.1728 5.61187 15.8451 5.61187H13.2732ZM14.3371 6.43143H15.5637C16.487 6.43143 17.0145 6.88139 17.0145 7.67284C17.0145 8.46428 16.487 8.91825 15.5593 8.91825H14.3371V6.43143ZM20.0437 11.9233C20.712 11.9233 21.3319 11.614 21.6132 11.1239H21.6352V11.8751H22.62V8.75756C22.62 7.85362 21.8287 7.27109 20.6109 7.27109C19.481 7.27109 18.6456 7.86166 18.6149 8.67319H19.5733C19.6524 8.28751 20.0437 8.03441 20.5801 8.03441C21.2308 8.03441 21.5957 8.31162 21.5957 8.82184V9.16734L20.2679 9.23965C19.0325 9.30795 18.3643 9.76996 18.3643 10.5735C18.3643 11.385 19.0545 11.9233 20.0437 11.9233ZM20.3295 11.1801C19.7623 11.1801 19.4018 10.931 19.4018 10.5494C19.4018 10.1556 19.7491 9.92664 20.413 9.89049L21.5957 9.82219V10.1757C21.5957 10.7623 21.0505 11.1801 20.3295 11.1801ZM23.9346 13.5785C24.9721 13.5785 25.4601 13.217 25.8866 12.1202L27.7551 7.33135H26.6736L25.4206 11.0314H25.3986L24.1456 7.33135H23.0333L24.8359 11.8912L24.7391 12.1684C24.5765 12.6384 24.3127 12.8192 23.8423 12.8192C23.7587 12.8192 23.596 12.8112 23.5301 12.8032V13.5544C23.5917 13.5705 23.8554 13.5785 23.9346 13.5785Z" fill="black"/>
</g>
<defs>
<clipPath id="clip0_83_2537">
<rect width="22.5099" height="8.44474" fill="white" transform="translate(5.245 5.13379)"/>
</clipPath>
</defs>
</svg>
