<svg width="32" height="18" viewBox="0 0 32 18" fill="none" xmlns="http://www.w3.org/2000/svg">
<rect y="0.855957" width="32" height="17" rx="8.5" fill="#1434CB"/>
<path d="M14.5606 12.8297H12.7426L13.8797 5.77637H15.6977L14.5606 12.8297Z" fill="white"/>
<path d="M21.1514 5.94873C20.7928 5.80601 20.224 5.64844 19.5207 5.64844C17.7253 5.64844 16.461 6.60884 16.4532 7.98194C16.4383 8.995 17.3584 9.55768 18.0466 9.89547C18.75 10.2406 18.9891 10.4659 18.9891 10.7736C18.9819 11.2461 18.4207 11.4639 17.8973 11.4639C17.1714 11.4639 16.7825 11.3516 16.1914 11.0888L15.952 10.9761L15.6976 12.5594C16.124 12.7543 16.9096 12.9272 17.7253 12.9348C19.6329 12.9348 20.8749 11.9892 20.8896 10.526C20.8969 9.72304 20.411 9.1078 19.3635 8.60506C18.7276 8.28233 18.3382 8.06471 18.3382 7.73451C18.3457 7.43432 18.6676 7.12685 19.3854 7.12685C19.9764 7.11179 20.4107 7.2543 20.7397 7.39692L20.9041 7.47181L21.1514 5.94873Z" fill="white"/>
<path d="M23.5677 10.331C23.7175 9.92577 24.2936 8.3575 24.2936 8.3575C24.286 8.37256 24.443 7.94481 24.5328 7.68222L24.6599 8.28998C24.6599 8.28998 25.0042 9.97832 25.0789 10.331C24.7948 10.331 23.9268 10.331 23.5677 10.331ZM25.8119 5.77637H24.4057C23.972 5.77637 23.6425 5.90382 23.4554 6.36159L20.7549 12.8296H22.6625C22.6625 12.8296 22.9766 11.9591 23.0441 11.7716C23.2534 11.7716 25.1091 11.7716 25.3784 11.7716C25.4306 12.0192 25.5953 12.8296 25.5953 12.8296H27.2787L25.8119 5.77637Z" fill="white"/>
<path d="M11.2239 5.77637L9.44341 10.5861L9.24884 9.61062C8.91967 8.48505 7.8873 7.26216 6.73523 6.6541L8.3661 12.8222H10.2887L13.1464 5.77637H11.2239Z" fill="white"/>
<path d="M7.79024 5.77637H4.86513L4.83521 5.91888C7.11697 6.5042 8.62814 7.91509 9.24901 9.61091L8.61313 6.36927C8.50844 5.91878 8.18672 5.79123 7.79024 5.77637Z" fill="white"/>
</svg>
