<svg width="39" height="39" viewBox="0 0 39 39" fill="none" xmlns="http://www.w3.org/2000/svg">
<path d="M6.46263 15.99C6.528 15.1756 6.89773 14.4156 7.4982 13.8615C8.09867 13.3074 8.88582 12.9998 9.70288 13H29.2971C30.1142 12.9998 30.9013 13.3074 31.5018 13.8615C32.1023 14.4156 32.472 15.1756 32.5374 15.99L33.8423 32.24C33.8781 32.6872 33.8211 33.137 33.6746 33.561C33.5281 33.9851 33.2955 34.3742 32.9912 34.7039C32.687 35.0336 32.3178 35.2968 31.9069 35.4768C31.496 35.6569 31.0523 35.7499 30.6036 35.75H8.39638C7.94775 35.7499 7.50401 35.6569 7.0931 35.4768C6.68218 35.2968 6.31299 35.0336 6.00876 34.7039C5.70454 34.3742 5.47187 33.9851 5.32541 33.561C5.17895 33.137 5.12187 32.6872 5.15776 32.24L6.46263 15.99V15.99Z" stroke="#020202" stroke-width="2" stroke-linecap="round" stroke-linejoin="round"/>
<path d="M26 17.875V9.75C26 8.02609 25.3152 6.37279 24.0962 5.15381C22.8772 3.93482 21.2239 3.25 19.5 3.25C17.7761 3.25 16.1228 3.93482 14.9038 5.15381C13.6848 6.37279 13 8.02609 13 9.75V17.875" stroke="#020202" stroke-width="2" stroke-linecap="round" stroke-linejoin="round"/>
</svg>
