<svg width="23" height="16" viewBox="0 0 23 16" fill="none" xmlns="http://www.w3.org/2000/svg">
<path d="M21.6335 2.81247C21.5089 2.36799 21.2661 1.96558 20.9311 1.64802C20.5866 1.32069 20.1644 1.08655 19.7043 0.967685C17.9824 0.513824 11.0837 0.513824 11.0837 0.513824C8.20772 0.481103 5.33243 0.62502 2.47409 0.944763C2.01398 1.07241 1.59256 1.31178 1.24729 1.6416C0.908038 1.96801 0.662311 2.37053 0.533947 2.81155C0.225589 4.47273 0.0757684 6.15944 0.0865034 7.84896C0.0755007 9.53696 0.224954 11.2231 0.533947 12.8864C0.659561 13.3256 0.904371 13.7262 1.24454 14.0499C1.5847 14.3736 2.00831 14.6074 2.47409 14.7311C4.21894 15.1841 11.0837 15.1841 11.0837 15.1841C13.9634 15.2169 16.8423 15.0729 19.7043 14.7532C20.1644 14.6343 20.5866 14.4001 20.9311 14.0728C21.2704 13.7492 21.5115 13.3466 21.6325 12.9084C21.949 11.2478 22.1028 9.56042 22.0919 7.87005C22.1157 6.17252 21.9621 4.47715 21.6335 2.81155V2.81247ZM8.8905 10.9884V4.71044L14.6302 7.84988L8.8905 10.9884Z" fill="black"/>
</svg>
