<svg width="18" height="20" viewBox="0 0 18 20" fill="none" xmlns="http://www.w3.org/2000/svg">
<path d="M9.40396 0.419748C10.4341 0.403809 11.4584 0.413254 12.4815 0.403809C12.5435 1.60873 12.9768 2.83608 13.8588 3.68797C14.739 4.56111 15.9841 4.96078 17.1955 5.09597V8.2656C16.0602 8.22841 14.9197 7.99227 13.8895 7.50345C13.4408 7.30037 13.0229 7.03884 12.6137 6.77141C12.6084 9.07144 12.6232 11.3685 12.599 13.6591C12.5376 14.7595 12.1745 15.8547 11.5346 16.7614C10.505 18.271 8.71796 19.2551 6.88254 19.2858C5.75673 19.3502 4.6321 19.0432 3.67277 18.4776C2.08293 17.5401 0.964203 15.824 0.801265 13.982C0.780741 13.5919 0.777589 13.2011 0.791819 12.8108C0.933505 11.313 1.6744 9.88023 2.82442 8.90555C4.12793 7.77029 5.95391 7.22953 7.66358 7.5495C7.67952 8.71546 7.63289 9.88023 7.63289 11.0462C6.85184 10.7935 5.93915 10.8644 5.2567 11.3384C4.7574 11.6673 4.38007 12.1513 4.18283 12.7157C4.0199 13.1148 4.06653 13.5582 4.07598 13.982C4.26312 15.2737 5.50524 16.3594 6.83118 16.2419C7.71022 16.2325 8.55266 15.7224 9.01078 14.9756C9.15896 14.7141 9.32485 14.4466 9.33371 14.1391C9.41104 12.7311 9.38034 11.329 9.38979 9.92097C9.39628 6.74779 9.37975 3.58289 9.40396 0.419748Z" fill="black"/>
</svg>
