<svg width="19" height="20" viewBox="0 0 19 20" fill="none" xmlns="http://www.w3.org/2000/svg">
<path d="M9.44477 6.69925C7.71041 6.69925 6.29504 8.11463 6.29504 9.84899C6.29504 11.5834 7.71041 12.9987 9.44477 12.9987C11.1791 12.9987 12.5945 11.5834 12.5945 9.84899C12.5945 8.11463 11.1791 6.69925 9.44477 6.69925ZM18.8916 9.84899C18.8916 8.54467 18.9034 7.25217 18.8302 5.95022C18.7569 4.43797 18.4119 3.09584 17.3061 1.99001C16.1979 0.881815 14.8582 0.539196 13.3459 0.465947C12.0416 0.392697 10.7491 0.404511 9.44713 0.404511C8.14282 0.404511 6.85032 0.392697 5.54836 0.465947C4.03611 0.539196 2.69399 0.884178 1.58816 1.99001C0.47996 3.09821 0.137341 4.43797 0.0640911 5.95022C-0.00915854 7.25453 0.00265595 8.54703 0.00265595 9.84899C0.00265595 11.1509 -0.00915854 12.4458 0.0640911 13.7478C0.137341 15.26 0.482323 16.6021 1.58816 17.708C2.69635 18.8162 4.03611 19.1588 5.54836 19.232C6.85268 19.3053 8.14518 19.2935 9.44713 19.2935C10.7514 19.2935 12.044 19.3053 13.3459 19.232C14.8582 19.1588 16.2003 18.8138 17.3061 17.708C18.4143 16.5998 18.7569 15.26 18.8302 13.7478C18.9058 12.4458 18.8916 11.1533 18.8916 9.84899ZM9.44477 14.6953C6.76289 14.6953 4.59848 12.5309 4.59848 9.84899C4.59848 7.16711 6.76289 5.0027 9.44477 5.0027C12.1267 5.0027 14.2911 7.16711 14.2911 9.84899C14.2911 12.5309 12.1267 14.6953 9.44477 14.6953ZM14.4895 5.93604C13.8634 5.93604 13.3577 5.43038 13.3577 4.80421C13.3577 4.17805 13.8634 3.67239 14.4895 3.67239C15.1157 3.67239 15.6214 4.17805 15.6214 4.80421C15.6216 4.9529 15.5924 5.10016 15.5356 5.23757C15.4788 5.37497 15.3954 5.49982 15.2903 5.60495C15.1851 5.71009 15.0603 5.79345 14.9229 5.85027C14.7855 5.90708 14.6382 5.93623 14.4895 5.93604Z" fill="black"/>
</svg>
