<svg width="38" height="38" viewBox="0 0 38 38" fill="none" xmlns="http://www.w3.org/2000/svg">
<g clip-path="url(#clip0_280_409)">
<path d="M12.6667 30.0833C13.5065 30.0833 14.312 29.7497 14.9058 29.1558C15.4997 28.562 15.8333 27.7565 15.8333 26.9167C15.8333 26.0768 15.4997 25.2714 14.9058 24.6775C14.312 24.0836 13.5065 23.75 12.6667 23.75C11.8268 23.75 11.0214 24.0836 10.4275 24.6775C9.83363 25.2714 9.5 26.0768 9.5 26.9167C9.5 27.7565 9.83363 28.562 10.4275 29.1558C11.0214 29.7497 11.8268 30.0833 12.6667 30.0833V30.0833ZM28.5 30.0833C29.3399 30.0833 30.1453 29.7497 30.7392 29.1558C31.333 28.562 31.6667 27.7565 31.6667 26.9167C31.6667 26.0768 31.333 25.2714 30.7392 24.6775C30.1453 24.0836 29.3399 23.75 28.5 23.75C27.6601 23.75 26.8547 24.0836 26.2608 24.6775C25.667 25.2714 25.3333 26.0768 25.3333 26.9167C25.3333 27.7565 25.667 28.562 26.2608 29.1558C26.8547 29.7497 27.6601 30.0833 28.5 30.0833V30.0833Z" stroke="black" stroke-width="1.5" stroke-miterlimit="1.5" stroke-linecap="round" stroke-linejoin="round"/>
<path d="M8.94575 26.9167H5.69992C5.57516 26.9167 5.45163 26.8921 5.33637 26.8444C5.22111 26.7966 5.11638 26.7266 5.02817 26.6384C4.93995 26.5502 4.86997 26.4455 4.82223 26.3302C4.77449 26.215 4.74992 26.0914 4.74992 25.9667V18.2083M15.9124 26.9167H23.7499V10.45C23.7499 10.198 23.6498 9.95641 23.4717 9.77825C23.2935 9.60009 23.0519 9.5 22.7999 9.5H1.58325L15.9124 26.9167Z" stroke="black" stroke-width="1.5" stroke-linecap="round"/>
<path d="M3.1665 14.25H9.49984" stroke="black" stroke-width="1.5" stroke-linecap="round" stroke-linejoin="round"/>
<path d="M23.75 26.9167H25.3333M23.75 14.25H32.6325C32.8161 14.25 32.9958 14.3033 33.1498 14.4033C33.3038 14.5034 33.4255 14.6459 33.5002 14.8137L36.3343 21.1913C36.3883 21.3124 36.4164 21.4435 36.4167 21.5761V25.9667C36.4167 26.0914 36.3921 26.215 36.3444 26.3302C36.2966 26.4455 36.2266 26.5502 36.1384 26.6384C36.0502 26.7266 35.9455 26.7966 35.8302 26.8444C35.715 26.8921 35.5914 26.9167 35.4667 26.9167H32.4583L23.75 14.25Z" stroke="black" stroke-width="1.5" stroke-linecap="round"/>
</g>
<defs>
<clipPath id="clip0_280_409">
<rect width="38" height="38" fill="white"/>
</clipPath>
</defs>
</svg>
